<svg width="371" height="88" viewBox="0 0 371 88" fill="none" xmlns="http://www.w3.org/2000/svg">
<path fill-rule="evenodd" clip-rule="evenodd" d="M294.5 43.5496C294.5 28.7789 296.021 18.8563 300.48 11.7307H300.467C305.214 4.19214 313.279 0.129883 323.994 0.129883C334.708 0.129883 342.682 4.19214 347.429 11.7307C351.888 18.8563 353.58 28.5924 353.396 43.3498C353.213 58.1071 351.691 68.6158 347.324 75.7547C342.59 83.3598 334.446 87.3555 323.719 87.3555C313.188 87.3555 305.227 83.2932 300.48 75.7547C296.021 68.6158 294.5 58.3203 294.5 43.5496ZM313.224 66.3507C310.944 62.4386 309.955 56.6009 309.955 43.7555C309.955 30.9101 310.944 25.0724 313.224 21.1725C315.503 17.2726 319.197 15.6517 323.962 15.6517C326.164 15.5298 328.358 15.9891 330.266 16.9715C332.175 17.9539 333.713 19.4156 334.687 21.1725C336.967 25.0724 337.859 30.9223 337.859 43.7555C337.859 56.5887 336.967 62.4386 334.687 66.3507C332.408 70.2628 328.823 71.8837 323.962 71.8837C319.101 71.8837 315.503 70.2506 313.224 66.3507Z" fill="#FF9E18"/>
<path d="M105.225 52.3684V3.87601C105.225 3.04851 105.896 2.37768 106.724 2.37768H119.419C120.246 2.37768 120.917 3.04851 120.917 3.87601V82.9772C120.917 83.8047 120.246 84.4755 119.419 84.4755H105.552C104.989 84.4755 104.474 84.1604 104.218 83.6595L78.5885 33.5552C78.2302 32.8547 77.1723 33.1096 77.1723 33.8964V82.977C77.1723 83.8045 76.5015 84.4753 75.674 84.4753H63.0203C62.1928 84.4753 61.522 83.8045 61.522 82.977V3.87577C61.522 3.04827 62.1928 2.37744 63.0203 2.37744H77.3025C77.8664 2.37744 78.3825 2.69407 78.6381 3.19676L103.808 52.7079C104.165 53.4102 105.225 53.1562 105.225 52.3684Z" fill="#FF9E18"/>
<path d="M168.785 52.3684V3.87601C168.785 3.04851 169.456 2.37768 170.283 2.37768H182.978C183.806 2.37768 184.476 3.04851 184.476 3.87601V82.9772C184.476 83.8047 183.806 84.4755 182.978 84.4755H169.111C168.549 84.4755 168.033 84.1604 167.777 83.6595L142.148 33.5552C141.79 32.8547 140.732 33.1096 140.732 33.8964V82.977C140.732 83.8045 140.061 84.4753 139.234 84.4753H126.58C125.752 84.4753 125.082 83.8045 125.082 82.977V3.87577C125.082 3.04827 125.752 2.37744 126.58 2.37744H140.862C141.426 2.37744 141.942 2.69407 142.198 3.19676L167.368 52.7079C167.725 53.4102 168.785 53.1562 168.785 52.3684Z" fill="#FF9E18"/>
<path d="M188.641 82.977V3.87937C188.641 3.05046 189.314 2.37906 190.143 2.38105L231.538 2.48041C232.364 2.48239 233.033 3.15263 233.033 3.97873V14.5767C233.033 15.4042 232.362 16.075 231.534 16.075H205.156C204.742 16.075 204.407 16.4104 204.407 16.8241V35.7003C204.407 36.1141 204.742 36.4495 205.156 36.4495H224.393C225.22 36.4495 225.891 37.1203 225.891 37.9478V48.8721C225.891 49.6996 225.22 50.3704 224.393 50.3704H205.195C204.781 50.3704 204.446 50.7058 204.446 51.1196V69.8054C204.446 70.2192 204.781 70.5546 205.195 70.5546H231.534C232.362 70.5546 233.033 71.2254 233.033 72.0529V82.977C233.033 83.8045 232.362 84.4753 231.534 84.4753H190.139C189.312 84.4753 188.641 83.8045 188.641 82.977Z" fill="#FF9E18"/>
<path d="M267.983 63.1864L282.755 3.51572C282.92 2.84708 283.52 2.37744 284.209 2.37744H296.559C297.048 2.37744 297.406 2.83927 297.284 3.31336L276.682 83.3505C276.512 84.0125 275.915 84.4753 275.231 84.4753H257.247C256.562 84.4753 255.964 84.0113 255.795 83.348L235.339 3.31212C235.218 2.83834 235.576 2.37744 236.065 2.37744H250.414C251.104 2.37744 251.705 2.8484 251.869 3.51829L266.528 63.1851C266.715 63.945 267.795 63.9459 267.983 63.1864Z" fill="#FF9E18"/>
<path d="M361.174 87.2225C355.863 87.2225 352.453 83.6531 352.453 78.0059C352.453 72.3453 355.954 68.6826 361.174 68.6826C366.393 68.6826 370 72.3586 370 78.0059C370 83.6531 366.485 87.2225 361.174 87.2225Z" fill="#FF9E18"/>
<path fill-rule="evenodd" clip-rule="evenodd" d="M19.9214 3.92104L0.0459374 82.9758C-0.191937 83.922 0.523454 84.8395 1.49905 84.8395H12.3827C13.0747 84.8395 13.6767 84.3655 13.8392 83.6928L17.7147 67.6428C17.8771 66.9701 18.4791 66.4961 19.1711 66.4961H38.0723C38.7644 66.4961 39.3664 66.9701 39.5288 67.6428L43.4043 83.6926C43.5667 84.3653 44.1687 84.8392 44.8608 84.8392H57.83C58.8041 84.8392 59.5192 83.9244 59.284 82.9791L39.6108 3.92435C39.4446 3.25657 38.8449 2.78785 38.1568 2.78786L21.3745 2.78804C20.6877 2.78805 20.0889 3.25498 19.9214 3.92104ZM29.1466 22.1306L36.3363 54.1393C36.4414 54.6076 36.0853 55.0526 35.6053 55.0526H21.7702C21.285 55.0526 20.9278 54.5984 21.0421 54.1269L28.8015 22.1277C28.8457 21.9456 29.1055 21.9478 29.1466 22.1306Z" fill="#FF9E18"/>
</svg>
