<?xml version="1.0" encoding="utf-8"?>
<!-- Generator: Adobe Illustrator 18.0.0, SVG Export Plug-In . SVG Version: 6.00 Build 0)  -->
<!DOCTYPE svg PUBLIC "-//W3C//DTD SVG 1.1//EN" "http://www.w3.org/Graphics/SVG/1.1/DTD/svg11.dtd">
<svg version="1.1" id="Layer_1" xmlns="http://www.w3.org/2000/svg" xmlns:xlink="http://www.w3.org/1999/xlink" x="0px" y="0px"
	 viewBox="0 0 257 50" enable-background="new 0 0 257 50" xml:space="preserve">
<g>
	<path fill="#231F20" d="M61.3,18.8c2.9,0,4.1,1.7,4.1,3.1c0,1-0.6,1.9-1.7,2.5c1.7,0.5,2.6,1.7,2.6,3.2c0,1.4-0.8,3.6-4.3,3.6h-6
		V18.8H61.3L61.3,18.8z M59,23.7h1.6c1.1,0,1.6-0.7,1.6-1.3c0-0.6-0.5-1.3-1.6-1.3H59V23.7L59,23.7z M59,28.9h1.7
		c1.7,0,2.3-0.5,2.3-1.5c0-0.9-0.8-1.4-1.9-1.4H59V28.9"/>
	<path fill="#231F20" d="M71,25.2L71,25.2c0.8-1.7,1.7-2.5,2.7-2.5c0.5,0,1,0.2,1.7,0.8l-0.7,2.3c-0.7-0.4-1.1-0.6-1.6-0.6
		c-1,0-1.6,0.9-2.1,2.4v3.6h-2.6v-8.3H71V25.2"/>
	<path fill="#231F20" d="M84.8,30.5c-0.7,0.4-1.7,0.8-2.5,0.8c-0.9,0-1.3-0.3-1.5-0.9c-1,0.7-1.8,0.9-2.7,0.9c-1.3,0-2.3-1-2.3-2
		c0-2,1.5-2.4,4.9-3.5c0.1-0.8-0.3-1.4-1.4-1.4c-1,0-2.2,0.5-3.1,1.4v-2.1c1.1-0.7,2.3-1,3.6-1c2.1,0,3.5,0.7,3.5,2.5V29
		c0,0.4,0.2,0.6,0.4,0.6c0.2,0,0.4,0,1-0.5V30.5L84.8,30.5z M80.8,27.1c-1.6,0.6-2.3,0.9-2.3,1.7c0,0.5,0.4,0.9,0.8,0.9
		c0.5,0,1-0.2,1.4-0.6V27.1"/>
	<path fill="#231F20" d="M88.8,24c0.8-1,1.6-1.4,2.7-1.4c1.3,0,3,0.7,3,3.2v5.3h-2.6v-5.1c0-1.2-0.6-1.7-1.3-1.7
		c-0.6,0-1.1,0.3-1.8,1.4v5.4h-2.6v-8.3h2.6V24"/>
	<path fill="#231F20" d="M105.2,31.1h-2.6v-0.7c-0.7,0.6-1.4,0.8-2.3,0.8c-2.2,0-3.9-1.8-3.9-4.3c0-2.5,1.7-4.3,4-4.3
		c0.8,0,1.5,0.2,2.2,0.5v-4.3h2.6V31.1L105.2,31.1z M102.6,24.9c-0.4-0.3-1-0.5-1.5-0.5c-1.3,0-2.1,1-2.1,2.6c0,1.5,0.8,2.5,2,2.5
		c0.6,0,1-0.2,1.5-0.7V24.9"/>
	<path fill="#231F20" d="M113.6,25.1c-1.1-0.7-2.3-0.9-2.8-0.9c-0.3,0-0.9,0.1-0.9,0.6c0,0.9,4.1,1,4.1,3.7c0,1.7-1.2,2.7-3.4,2.7
		c-1.3,0-2.6-0.4-3-0.6v-1.8c0.8,0.4,1.7,0.7,2.7,0.7c0.8,0,1.3-0.2,1.3-0.6c0-1.2-4.1-1-4.1-3.7c0-1.5,1.4-2.6,3.4-2.6
		c1,0,1.8,0.2,2.7,0.6V25.1"/>
	<polyline fill="#231F20" points="118.7,26.9 118.8,26.9 122,22.8 125.1,22.8 121.8,26.9 125.2,31.1 122,31.1 118.8,27 118.7,27 
		118.7,31.1 116.1,31.1 116.1,18.8 118.7,18.8 118.7,26.9 	"/>
	<polyline fill="#231F20" points="128.8,35.1 126.1,35.1 128.5,29.8 125.3,22.8 128.1,22.8 129.8,27.1 131.7,22.8 134.4,22.8 
		128.8,35.1 	"/>
	<path fill="#231F20" d="M143.8,31.1h-2.6v-0.7c-0.7,0.6-1.4,0.8-2.3,0.8c-2.2,0-3.9-1.8-3.9-4.3c0-2.5,1.7-4.3,4-4.3
		c0.8,0,1.5,0.2,2.2,0.5v-4.3h2.6V31.1L143.8,31.1z M141.2,24.9c-0.4-0.3-1-0.5-1.5-0.5c-1.3,0-2.1,1-2.1,2.6c0,1.5,0.8,2.5,2,2.5
		c0.6,0,1-0.2,1.6-0.7V24.9"/>
	<path fill="#231F20" d="M154.4,31.1h-2.6v-0.7c-0.7,0.6-1.4,0.8-2.3,0.8c-2.2,0-3.9-1.8-3.9-4.3c0-2.5,1.7-4.3,4-4.3
		c0.8,0,1.5,0.2,2.2,0.5v-4.3h2.6V31.1L154.4,31.1z M151.8,24.9c-0.4-0.3-1-0.5-1.5-0.5c-1.3,0-2.1,1-2.1,2.6c0,1.5,0.8,2.5,2,2.5
		c0.6,0,1-0.2,1.6-0.7V24.9"/>
	<path fill="#231F20" d="M162.7,25.1c-1.1-0.7-2.3-0.9-2.8-0.9c-0.3,0-0.9,0.1-0.9,0.6c0,0.9,4.1,1,4.1,3.7c0,1.7-1.2,2.7-3.4,2.7
		c-1.3,0-2.6-0.4-3-0.6v-1.8c0.8,0.4,1.7,0.7,2.7,0.7c0.8,0,1.3-0.2,1.3-0.6c0-1.2-4.1-1-4.1-3.7c0-1.5,1.4-2.6,3.4-2.6
		c1,0,1.8,0.2,2.7,0.6V25.1"/>
	<path fill="#231F20" d="M169.3,22.8v1.8h-1.2v6.5h-2.6v-6.5h-1.2v-1.8h1.2v-0.4c0-2.5,1.5-3.7,3.6-3.7c0.5,0,1.2,0.1,1.6,0.2V21
		c-0.7-0.1-0.9-0.1-1.2-0.1c-0.8,0-1.4,0.4-1.4,1.5v0.5H169.3"/>
	<path fill="#231F20" d="M175.3,31.3c-2.7,0-4.7-1.7-4.7-4.3c0-2.8,2.3-4.3,4.7-4.3c2,0,4.7,1.1,4.7,4.3
		C180,30.3,177.1,31.3,175.3,31.3L175.3,31.3z M175.3,24.2c-1.1,0-1.9,0.9-1.9,2.8c0,2.1,0.9,2.8,1.9,2.8c1.2,0,1.9-1,1.9-2.8
		C177.2,25.3,176.6,24.2,175.3,24.2"/>
	<path fill="#231F20" d="M184.8,25.2L184.8,25.2c0.8-1.7,1.7-2.5,2.7-2.5c0.5,0,1,0.2,1.7,0.8l-0.7,2.3c-0.7-0.4-1.1-0.6-1.6-0.6
		c-1,0-1.6,0.9-2.1,2.4v3.6h-2.6v-8.3h2.6V25.2"/>
	<path fill="#231F20" d="M198.2,30.2c-1.5,1.1-3.1,1.1-3.7,1.1c-2.9,0-4.8-1.7-4.8-4.3c0-2.5,1.8-4.3,4.4-4.3c2.4,0,4.4,1.7,4.3,4.7
		h-6c0.1,1.5,1.1,2.3,2.7,2.3c1,0,1.9-0.3,3.1-1.2V30.2L198.2,30.2z M196.1,26c-0.1-1.1-0.8-1.8-1.8-1.8c-1,0-1.7,0.7-1.8,1.8H196.1
		"/>
	<path fill="#231F20" d="M203,24c0.8-1,1.6-1.4,2.7-1.4c1.3,0,3,0.7,3,3.2v5.3h-2.6v-5.1c0-1.2-0.6-1.7-1.3-1.7
		c-0.6,0-1.1,0.3-1.8,1.4v5.4h-2.6v-8.3h2.6V24"/>
	<path fill="#231F20" d="M213.9,20.1c0,0.8-0.6,1.4-1.4,1.4c-0.8,0-1.4-0.6-1.4-1.4s0.6-1.4,1.4-1.4
		C213.3,18.7,213.9,19.3,213.9,20.1L213.9,20.1z M213.8,31.1h-2.6v-8.3h2.6V31.1"/>
	<path fill="#231F20" d="M219,24c0.8-1,1.6-1.4,2.7-1.4c1.3,0,3,0.7,3,3.2v5.3h-2.6v-5.1c0-1.2-0.6-1.7-1.3-1.7
		c-0.6,0-1.1,0.3-1.8,1.4v5.4h-2.6v-8.3h2.6V24"/>
	<path fill="#231F20" d="M235.3,24.6h-1.2c0.3,0.5,0.4,0.9,0.4,1.4c0,0.7-0.3,1.4-0.8,1.8c-1.5,1.5-3.9,0.6-3.9,1.6
		c0,1,3.2,0.1,4.5,1.5c0.5,0.5,0.7,1.2,0.7,1.6c0,1.9-1.7,2.8-4.4,2.8c-3.5,0-4.4-1.3-4.4-2.4c0-0.7,0.4-1.6,2.2-2.1v0
		c-0.6-0.2-1-0.5-1-1.1c0-0.9,1-1.1,1.5-1.2v0c-1.1-0.2-2.3-1-2.3-2.6c0-1,0.7-3,3.7-3h4.9V24.6L235.3,24.6z M230.7,31.8
		c-1.2,0-2,0.4-2,1c0,0.6,0.8,1,2.1,1c1.2,0,1.9-0.5,1.9-1C232.7,32.1,232,31.8,230.7,31.8L230.7,31.8z M230.6,27.4
		c0.8,0,1.5-0.7,1.5-1.6c0-0.8-0.6-1.4-1.5-1.4c-0.9,0-1.5,0.7-1.5,1.5C229.1,26.7,229.8,27.4,230.6,27.4"/>
	<path fill="#231F20" d="M245,30.2c-1.5,1.1-3.1,1.1-3.7,1.1c-2.9,0-4.8-1.7-4.8-4.3c0-2.5,1.8-4.3,4.4-4.3c2.4,0,4.4,1.7,4.3,4.7
		h-6c0.1,1.5,1.1,2.3,2.7,2.3c1,0,1.9-0.3,3.1-1.2V30.2L245,30.2z M242.8,26c-0.1-1.1-0.8-1.8-1.8-1.8c-1,0-1.7,0.7-1.8,1.8H242.8"
		/>
	<path fill="#231F20" d="M249.7,24c0.8-1,1.6-1.4,2.7-1.4c1.3,0,3,0.7,3,3.2v5.3h-2.6v-5.1c0-1.2-0.6-1.7-1.3-1.7
		c-0.6,0-1.1,0.3-1.8,1.4v5.4h-2.6v-8.3h2.6V24"/>
	<path fill-rule="evenodd" clip-rule="evenodd" fill="#231F20" d="M175.1,20.1c0,0.8-0.6,1.4-1.4,1.4c-0.8,0-1.4-0.6-1.4-1.4
		c0-0.8,0.6-1.4,1.4-1.4C174.5,18.7,175.1,19.3,175.1,20.1"/>
	<path fill-rule="evenodd" clip-rule="evenodd" fill="#231F20" d="M178.7,20.1c0,0.8-0.6,1.4-1.4,1.4c-0.8,0-1.4-0.6-1.4-1.4
		c0-0.8,0.6-1.4,1.4-1.4C178.1,18.7,178.7,19.3,178.7,20.1"/>
	<path fill="#C6093B" d="M21.3,2c1.5,0.2,2.8,1.8,3.5,3c0.3,0.4,0.6,0.9,0.8,1.3c0.1,0.1,0.3,0.1,0.4,0.1c0.6-0.1,0.9-2,0.7-3
		c0-0.1,0-0.2-0.1-0.4C27.4,3.4,28,5.5,28,6.9c0,0.6,0,1.1,0,1.7C28.1,9,28.5,9,28.6,9c0.7-0.4,1.2-1.1,1.4-2.1
		c0.2,1.3-0.6,4.1-1.4,5.9c-0.1,0.2-0.1,0.3-0.2,0.5c0,0,0,0,0,0c-0.2-0.4-0.4-0.8-0.6-1.2c-0.4-0.8-1-1.6-1.7-2.4
		c-0.5-0.5-0.9-0.9-1.5-1.3c-0.3-0.2-0.8-0.5-1-0.7c0-0.5-0.1-1-0.2-1.5C23.1,4.5,22.7,3,21.3,2"/>
	<path fill="#C6093B" d="M34.8,3.4c0.6,0.4,1.1,1.1,1.6,1.7c2.4,3.2,2.3,7.3,1.5,11.4c-0.1,0.4-0.5,1.5,0.1,1.7c0.1,0,0.2,0,0.4,0
		c2.2-0.9,3.7-4.1,4.1-6.3c0.1-0.8,0-2.6,0-2.6c0.5,0.4,0.9,1.5,1.2,2.1C45.2,15,44,18.6,42.7,22c-0.4,1-1,1.9-1.1,3
		c0,0.1,0,0.2,0,0.3c0.1,0.1,0.3,0.2,0.4,0.2c0,0,0.1,0,0.1,0c2.3-0.9,4.3-3.2,5.3-5.4c0.1-0.1,0.4-0.9,0.4-0.9
		c0.9,3.7,0,6.9-2.5,9.5c-1,1.1-2.4,1.9-3.4,2.9c-0.4,0.3-0.4,0.9,0.2,0.9c0.2,0,0.6-0.1,0.8-0.1c0.6-0.1,1.1-0.3,1.6-0.5
		c1.5-0.6,2.7-1.5,3.8-2.8c0.2-0.3,0.6-0.8,0.6-0.8c-0.4,3.3-2.8,5.6-5.5,7.1c-0.5,0.3-2.3,1-2.5,1.5c-0.3,0.8,0.9,0.7,1.4,0.7
		c0.1,0,0.6,0,1.3-0.2c0.4-0.1,2.2-0.8,3-1.2c-0.1,0.4-0.4,0.8-0.7,1.1c-1.3,1.4-2.9,2.4-4.7,2.8c-0.4,0.1-2.6,0.3-2.8,0.5
		c-0.6,0.9,2.6,1.8,3.8,1.7c0.2,0,0.7,0,0.7,0c0,0-0.6,0.7-1.3,1.1c-2.2,1.2-4.7,1-6.9,0c-0.7-0.3-1.7-1.3-2.5-1.3
		c-0.2,0-0.4,0.1-0.5,0.2c-0.6,0.6,0.5,2,0.9,2.5c0.7,0.9,1.6,1.7,2.6,2.3c0.1,0.1,0.2,0.1,0.3,0.2c-0.3,0-3.7-0.4-5.3-1
		c-0.8-0.3-2.2-1.2-2.8-1.2c-0.5,0-1,0.6-1.4,0.9c-0.3,0.2-0.5,0.4-0.8,0.5c-1,0.6-2,0.9-3.1,1.2C21.6,48,20.8,48,20,48
		c0,0,2.8-3.5,1.6-3.9c-0.4-0.1-2.4,1.3-2.9,1.5c-0.5,0.2-1.1,0.4-1.7,0.5c-1,0.2-2.1,0.3-3.2,0.2c-0.5-0.1-1.3-0.3-1.3-0.3
		c0.6,0,1.3-0.1,1.6-0.1c0.5-0.1,0.7-0.2,1.1-0.4c0.4-0.2,2.2-1.2,2-1.8c-0.2-0.4-1.1-0.2-1.4-0.1c-3.8,0.3-5.7-0.6-7.1-1.3
		c-0.2-0.1-1.5-0.7-2-1.2c2.5,0.6,4.9,0,5.3,0c0.6-0.1,1.8-0.4,1.5-1.1c-0.1-0.2-0.2-0.2-0.4-0.3c-0.6-0.1-1.1-0.3-1.7-0.4
		c-0.7-0.2-1.4-0.5-2.1-0.7c-3.2-1.3-6.2-4.1-7.1-7.5c-0.2-0.7-0.3-2-0.2-2.2c1.2,1.9,3.9,4.5,6.4,4.5c0.1,0,0.2-0.1,0.2-0.2
		C9,32.5,8.1,32,7.7,31.7c-3.2-2.6-5.3-6.3-5.7-10.4c0-0.4,0-0.9,0-1.3c0,0,0-0.1,0-0.1c0,0,0,0,0,0c0.2,0.3,0.3,0.6,0.5,0.9
		c0.2,0.3,0.5,0.7,0.7,1c0.6,0.8,3.3,3.4,4.2,2.5c0.2-0.2,0.2-0.5,0.1-0.7c-0.3-1.1-1-2-1.4-3c-1.1-3-0.6-6.3,0.7-9.1
		c0.2-0.4,1-1.3,1.1-1.5c0.1-0.1-0.1,0.8-0.2,1c-0.6,2.2,0.3,4.3,1.6,5.8c0.3,0.3,0.6,0.8,1.1,0.8c0.2,0,0.3-0.2,0.4-0.3
		c0.2-0.4-0.1-1.2-0.2-1.7c0-0.6-0.1-1.3-0.1-1.9c-0.1-2.5,0.6-5,1.9-6.8c0.2-0.3,0.5-0.6,0.7-1c-0.1,0.3-0.2,0.6-0.2,1
		c-0.1,0.4-0.2,0.9-0.3,1.4c-0.2,1.4,0.3,5.9,2,5.9c0.3,0,0.5-0.3,0.6-0.6c0.1-0.8-0.2-1.6-0.3-2.3c-0.2-2.1,0.4-4.3,1.5-5.8
		c0.1-0.2,0.3-0.5,0.5-0.6c-0.2,1.6-0.6,3.3-0.2,5c0.6,2.4,2.4,4.3,2.4,7c0,2.1-0.9,3.9-1.6,5.6c-0.4,1-1.1,2.2-0.9,3.5
		c0,0,0,0.1,0,0.1c0.3,1.4,1.4,2.4,3,2.4c0.1,0,0.2,0,0.3,0c0,0,0.1,0,0.1,0c0,0,0.1,0,0.1,0c0.5-0.2,0.9-0.3,1.4-0.6
		c1-0.7,1.6-1.8,1.9-2.9c0.9-3.2,0.4-6.2-1-8.9c-0.4-0.8-0.8-1.6-1.3-2.3c-0.2-0.3-0.5-0.6-0.7-0.9c0.1-0.1,0.5,0,0.5,0
		c1.2,0.4,2,1.5,2.8,2.5c0.7,0.9,1.3,0.1,0.9-0.8c-0.7-1.6-2.4-3.8-4.2-4.1c-0.3,0-0.5,0-0.8,0c0,0,0,0,0,0c0,0,0,0,0,0c0,0,0,0,0,0
		c0.4-0.5,1.2-0.9,1.9-0.9c0.7-0.1,1.8,0.3,2.3,0.6c1.2,0.7,2.1,1.9,2.7,3.1c1,2,1.6,4.2,1.9,6.6c0.3,2.5,0.3,5.2,0.9,7.6
		c0.2,0.7,0.3,1.6,1.2,1.6c0.1-0.1,0.3-0.2,0.4-0.2c0,0,0-0.1,0.1-0.1c0-0.1,0.1-0.1,0.1-0.2c0,0,0-0.1,0.1-0.1
		c0-0.1,0.1-0.1,0.1-0.2c0,0,0-0.1,0.1-0.1c0-0.1,0.1-0.1,0.1-0.2c0-0.1,0.1-0.2,0.1-0.3c0.7-1.9,0.2-4.1,0-6.1
		c-0.2-2.1-0.3-4.3,0-6.3c0.2-1.6,0.8-3.2,1.5-4.6c0.8-1.6,2-2.9,2-4.9c0-0.1,0-0.2,0-0.3c0-0.1,0-0.1,0-0.2c0-0.1,0-0.1,0-0.2
		c0,0,0-0.1,0-0.1c0,0,0-0.1,0-0.1c0,0,0-0.1,0-0.1c0-0.1,0-0.2-0.1-0.4c0,0,0,0,0-0.1c0-0.1-0.1-0.2-0.1-0.3c0-0.1-0.1-0.3-0.1-0.4
		c0,0,0,0,0-0.1c0,0,0,0,0-0.1C34.8,3.5,34.8,3.5,34.8,3.4"/>
	<path fill="#C6093B" d="M21.6,18c0,0,0.6,1.5,0.7,2.4c0.1,1.2,0.1,5.4-1.9,5c-0.3-0.1-0.6-0.2-0.7-0.5c-0.7-1.4,0.3-2.2,1.2-4
		C21.2,20.2,21.5,19.1,21.6,18"/>
</g>
</svg>
